<?xml version="1.0" standalone="no"?>
<!DOCTYPE svg PUBLIC "-//W3C//DTD SVG 20010904//EN"
 "http://www.w3.org/TR/2001/REC-SVG-20010904/DTD/svg10.dtd">
<svg version="1.0" xmlns="http://www.w3.org/2000/svg"
 width="640.000000pt" height="640.000000pt" viewBox="0 0 640.000000 640.000000"
 preserveAspectRatio="xMidYMid meet">
<metadata>
Created by potrace 1.14, written by Peter Selinger 2001-2017
</metadata>
<g transform="translate(0.000000,640.000000) scale(0.100000,-0.100000)"
fill="#000000" stroke="none">
<path d="M2827 5110 c-20 -11 -45 -20 -56 -20 -27 0 -169 -73 -214 -110 -55
-47 -126 -152 -153 -228 l-23 -67 -498 -5 -498 -5 -58 -27 c-68 -32 -154 -115
-185 -178 -22 -47 -50 -195 -39 -206 5 -6 100 16 144 33 10 4 13 -129 15 -664
3 -663 3 -668 25 -722 12 -30 19 -59 16 -65 -3 -6 -3 -8 1 -5 4 4 32 -20 63
-52 64 -67 122 -104 184 -118 24 -5 232 -11 461 -12 l417 -3 20 -66 c57 -188
121 -414 117 -417 -2 -2 -95 -31 -207 -64 -112 -33 -257 -75 -321 -94 -64 -19
-119 -35 -122 -35 -3 0 -15 31 -27 70 l-21 70 -204 0 -203 0 -3 73 -3 72 -160
42 c-88 23 -168 42 -177 42 -16 1 -18 -12 -18 -132 0 -160 15 -220 68 -279 20
-23 60 -52 87 -64 l50 -24 1006 0 1006 0 84 88 c46 48 113 124 148 168 l65 82
113 12 c125 14 194 9 325 -21 l86 -20 41 21 c23 11 40 24 38 29 -1 5 7 16 17
24 19 14 19 15 -10 30 -29 15 -30 17 -29 92 0 70 2 78 24 89 l23 13 -33 20
c-19 11 -65 37 -104 57 l-70 36 0 75 c0 75 0 75 35 97 35 21 35 21 12 31 -21
10 -23 15 -20 91 l3 81 185 95 c605 311 700 361 728 377 l32 18 1 150 c4 454
-2 785 -15 829 -32 105 -104 187 -205 235 l-56 26 -467 3 -467 3 -12 42 c-42
156 -183 304 -336 352 -32 10 -75 26 -96 37 -31 16 -43 18 -70 9 -58 -19 -113
-21 -157 -6 -23 8 -46 12 -51 9 -6 -3 -37 -9 -70 -14 -45 -6 -71 -5 -101 6
-22 8 -41 14 -42 14 -1 0 -18 -9 -39 -20z m534 -184 c69 -16 132 -52 181 -103
37 -39 78 -107 78 -130 0 -10 -109 -13 -530 -13 -417 0 -530 3 -530 13 0 26
61 116 101 151 49 41 117 77 169 87 67 13 471 10 531 -5z m60 -1901 c35 -13
39 -51 39 -354 0 -272 -2 -301 -18 -321 -17 -21 -24 -22 -201 -21 -158 0 -186
3 -202 17 -18 16 -19 37 -19 334 0 289 2 318 18 332 9 9 24 18 32 21 19 7 330
0 351 -8z"/>
<path d="M3183 2593 c-15 -6 -18 -158 -4 -167 5 -4 17 -3 25 0 14 5 16 20 14
87 -3 78 -9 91 -35 80z"/>
<path d="M3270 2590 c-21 -13 -24 -135 -4 -155 29 -29 39 -12 42 72 3 83 -6
103 -38 83z"/>
<path d="M5385 3076 c-442 -225 -720 -369 -725 -376 -3 -4 -16 -11 -30 -15
-31 -10 -69 -35 -52 -35 7 0 10 -4 7 -10 -9 -15 -1 -13 50 12 25 12 40 25 35
28 -8 5 295 169 495 269 17 8 32 17 35 21 10 13 39 19 42 8 2 -6 25 0 56 16
53 27 74 29 25 2 -16 -9 -21 -16 -13 -16 9 0 5 -6 -10 -15 -14 -8 -19 -14 -12
-15 7 0 10 -4 7 -10 -8 -13 5 -13 25 0 13 9 13 10 0 10 -9 1 -5 6 10 15 15 9
19 15 10 15 -8 0 3 12 25 25 22 14 33 25 25 25 -12 1 -11 3 3 14 13 10 15 15
5 18 -7 3 12 17 42 31 30 14 56 24 58 22 3 -2 -7 -10 -22 -16 -16 -8 -22 -15
-15 -19 7 -5 5 -9 -6 -13 -9 -4 -13 -3 -10 3 3 6 -1 10 -9 10 -8 0 -18 -4 -21
-10 -3 -5 -1 -10 6 -10 7 0 4 -7 -7 -15 -22 -17 -12 -20 17 -5 10 6 19 8 19 6
0 -3 -18 -15 -41 -26 -23 -12 -39 -24 -36 -27 3 -3 29 7 57 23 29 16 46 30 39
34 -7 5 -5 9 6 13 11 5 14 3 9 -5 -5 -8 -2 -9 10 -5 10 4 21 7 24 7 4 0 1 4
-7 9 -9 6 -10 11 -2 15 6 4 11 2 11 -3 0 -6 4 -11 10 -11 5 0 7 7 4 15 -4 8
-1 15 6 15 6 0 8 -4 5 -10 -8 -13 5 -13 25 0 13 9 13 10 0 10 -8 0 8 14 35 30
28 16 43 30 35 30 -12 0 -12 2 -2 9 8 5 12 15 10 24 -2 12 -63 -15 -263 -117z
m255 110 c0 -2 -7 -7 -16 -10 -8 -3 -12 -2 -9 4 6 10 25 14 25 6z m-32 -38
c-38 -25 -68 -37 -82 -32 -16 6 -12 24 5 24 6 0 7 -4 4 -10 -8 -13 5 -13 25 0
13 9 13 10 0 10 -9 1 -5 6 9 14 28 16 63 10 39 -6z m-288 -128 c-30 -16 -59
-29 -65 -29 -5 0 15 13 45 29 30 16 60 29 65 29 6 0 -15 -13 -45 -29z m-670
-350 c-20 -13 -33 -13 -25 0 3 6 14 10 23 10 15 0 15 -2 2 -10z"/>
<path d="M5580 3150 c-9 -6 -10 -10 -3 -10 6 0 15 5 18 10 8 12 4 12 -15 0z"/>
<path d="M5622 3129 c-13 -5 -21 -13 -17 -19 4 -6 -1 -7 -11 -3 -11 4 -15 3
-11 -4 8 -13 -194 -125 -215 -120 -7 2 -9 2 -4 -1 5 -3 -2 -11 -15 -19 l-24
-14 25 6 c21 6 20 3 -8 -15 -36 -22 -72 -19 -68 6 1 9 9 20 17 26 10 7 9 8 -6
3 -11 -5 -31 -8 -45 -9 -27 -1 -564 -275 -556 -283 3 -3 21 5 41 17 20 12 38
20 41 17 3 -3 -10 -13 -30 -22 -22 -11 -33 -22 -29 -31 6 -17 24 -19 20 -3 -3
17 57 51 77 43 15 -6 15 -7 -1 -20 -22 -17 -12 -18 22 -2 16 7 21 14 14 18 -7
5 -5 9 6 13 10 4 14 3 9 -4 -4 -8 1 -9 17 -4 37 11 21 1 -59 -39 -41 -21 -71
-32 -67 -27 9 15 -5 13 -35 -4 -14 -8 -29 -14 -35 -14 -5 0 1 6 15 14 14 8 19
14 12 15 -7 0 -10 5 -7 10 9 15 1 13 -59 -16 -47 -24 -53 -31 -52 -55 1 -34
-1 -33 36 -14 31 16 42 32 14 21 -9 -4 -13 -2 -8 5 4 8 -1 9 -16 4 -14 -5 -20
-3 -16 3 3 5 22 10 41 9 23 -1 30 -4 22 -10 -7 -5 -4 -6 11 -2 38 11 24 -2
-33 -32 -31 -15 -52 -29 -47 -31 9 -3 116 51 322 163 58 31 110 58 115 59 6 1
48 22 95 46 47 25 89 44 93 42 5 -1 6 2 2 8 -3 6 -11 7 -17 4 -6 -4 -8 -2 -5
4 4 5 15 8 25 6 9 -3 46 11 82 31 36 20 121 63 190 96 136 66 136 66 128 74
-3 3 -40 -13 -83 -35 -42 -23 -78 -40 -80 -38 -4 4 170 98 182 98 4 0 2 -4 -6
-9 -9 -6 -10 -11 -2 -15 13 -9 24 15 19 42 -2 16 -7 18 -26 11z m-202 -149
c-19 -11 -39 -19 -45 -19 -5 0 6 8 25 19 19 11 40 19 45 19 6 0 -6 -8 -25 -19z
m-203 -36 c-39 -21 -27 -30 13 -9 18 9 29 12 26 7 -3 -6 3 -14 15 -17 20 -7
19 -8 -10 -26 -38 -23 -52 -25 -25 -3 17 14 17 15 1 10 -11 -3 -16 -2 -12 4 8
13 -5 13 -25 0 -13 -8 -13 -10 -1 -10 11 0 9 -4 -5 -15 -22 -17 -38 -20 -29
-5 8 12 -5 13 -24 1 -10 -6 -6 -11 14 -18 26 -8 25 -10 -51 -48 -44 -21 -87
-43 -98 -48 -14 -7 -16 -6 -11 3 5 8 3 11 -6 8 -8 -3 -13 -10 -12 -17 4 -17
-75 -53 -93 -43 -12 7 3 19 66 51 45 24 79 45 77 48 -3 3 -31 -9 -62 -26 -60
-33 -83 -40 -51 -16 25 19 16 19 -20 0 -23 -12 -25 -15 -9 -15 13 0 3 -9 -27
-25 -31 -17 -53 -22 -67 -17 -15 5 13 24 136 85 85 43 152 74 148 68 -7 -13
-3 -14 20 -5 12 5 13 9 5 14 -8 5 -7 9 5 13 9 4 13 3 10 -3 -8 -13 5 -13 25 0
13 9 13 10 0 10 -16 0 78 59 95 59 6 0 -3 -7 -18 -15z m-550 -310 c-16 -9 -31
-13 -34 -10 -3 3 5 10 18 15 37 15 47 12 16 -5z m58 -14 c-3 -5 -14 -10 -23
-10 -15 0 -15 2 -2 10 20 13 33 13 25 0z"/>
<path d="M5240 2920 c8 -5 20 -10 25 -10 6 0 3 5 -5 10 -8 5 -19 10 -25 10 -5
0 -3 -5 5 -10z"/>
<path d="M5162 2911 c-11 -6 -10 -10 4 -15 9 -3 19 -4 22 -1 3 3 -1 5 -9 5
-11 0 -11 2 1 10 8 5 11 10 5 10 -5 0 -16 -4 -23 -9z"/>
<path d="M5097 2859 c-9 -5 -21 -7 -27 -4 -5 3 -40 -10 -77 -29 -37 -19 -64
-35 -60 -36 4 0 26 9 48 20 27 14 45 18 56 12 14 -8 12 -12 -13 -25 -16 -9
-26 -16 -22 -17 10 0 101 44 126 61 20 14 21 17 7 23 -20 7 -16 8 -38 -5z m6
-20 c-21 -14 -40 -18 -54 -14 -17 6 -19 9 -8 16 8 5 19 9 24 9 6 0 3 -5 -5
-10 -13 -9 -13 -10 1 -10 8 0 24 7 35 15 10 8 24 14 29 15 6 0 -4 -10 -22 -21z"/>
<path d="M4827 2744 c-16 -9 -26 -18 -23 -21 3 -3 20 4 38 16 38 24 27 28 -15
5z"/>
<path d="M4915 2740 c-39 -26 -26 -26 22 0 21 11 31 20 23 20 -8 0 -28 -9 -45
-20z"/>
<path d="M5485 2924 c-77 -41 -264 -138 -415 -216 -512 -262 -561 -289 -500
-274 21 5 20 3 -5 -9 -20 -10 -24 -14 -12 -15 10 0 15 -4 12 -10 -3 -5 0 -10
7 -10 9 0 9 -3 -2 -10 -22 -15 -4 -12 37 5 20 8 34 18 30 21 -3 3 -14 1 -25
-5 -26 -14 -35 -14 -27 -1 3 6 0 10 -7 10 -7 1 -2 7 12 15 14 8 19 14 12 15
-15 0 -6 20 9 20 6 0 7 -4 4 -10 -8 -13 5 -13 25 0 11 7 11 10 2 10 -7 0 -10
5 -7 10 3 6 11 10 16 10 6 0 7 -5 3 -12 -5 -8 -2 -9 10 -5 10 4 21 7 24 7 4 0
1 4 -6 9 -11 7 -10 9 3 14 9 4 13 3 10 -3 -3 -6 -4 -10 0 -10 13 0 147 72 142
76 -3 3 -32 -9 -66 -25 -100 -51 -69 -27 44 33 107 58 121 63 110 46 -8 -13 1
-13 28 2 20 10 21 10 8 -5 -17 -21 -3 -22 23 -2 14 11 16 15 5 15 -8 1 3 10
24 21 22 11 37 23 34 25 -3 3 -23 -4 -46 -16 -23 -11 -41 -18 -41 -15 0 2 18
14 40 25 32 16 45 18 61 10 11 -6 25 -9 32 -7 7 3 -1 8 -17 12 -27 7 -22 11
83 65 144 74 164 82 156 70 -11 -17 4 -12 103 41 105 55 121 65 82 55 -24 -7
-24 -6 -6 8 22 18 40 21 31 6 -9 -15 6 -11 45 11 33 19 20 21 -25 4 -35 -14
-11 4 28 20 25 10 36 11 35 4 -2 -6 2 -13 7 -15 6 -2 11 9 11 26 1 16 1 30 0
29 0 0 -64 -34 -141 -75z m-74 -65 c-40 -22 -75 -38 -77 -36 -6 5 120 76 136
76 8 1 -18 -17 -59 -40z"/>
<path d="M5576 2921 c-14 -10 -23 -21 -19 -26 5 -4 0 -5 -10 -2 -11 4 -55 -14
-122 -49 -58 -30 -109 -52 -115 -49 -5 3 -60 -20 -121 -51 -89 -44 -109 -58
-96 -65 11 -7 26 -5 47 6 35 18 39 29 8 20 -18 -5 -20 -4 -8 4 8 6 24 8 35 5
16 -4 17 -3 5 5 -17 12 -1 15 17 3 16 -10 -102 -76 -123 -68 -8 3 -29 -3 -47
-14 -38 -24 -29 -27 15 -4 16 9 27 11 24 5 -11 -17 11 -13 55 10 23 11 38 16
34 10 -9 -16 8 -13 31 5 16 13 16 15 2 10 -25 -7 -22 1 3 15 15 8 19 8 15 0
-9 -14 4 -14 24 -1 13 9 13 10 0 10 -13 0 -13 1 0 10 13 8 13 10 1 10 -11 0
-10 4 5 16 16 13 16 15 2 10 -48 -16 -51 -16 -26 -2 15 9 34 13 44 9 16 -6 16
-7 -2 -20 -13 -10 -14 -13 -3 -13 12 0 12 -2 -1 -11 -12 -8 -11 -10 5 -7 11 2
21 9 21 16 1 6 2 13 4 15 1 1 3 10 5 20 3 14 -1 17 -13 12 -9 -3 -13 -3 -9 2
5 4 22 8 40 9 l31 2 -24 -14 c-14 -7 -19 -13 -13 -14 7 0 27 9 45 20 18 11 26
20 18 20 -13 0 -13 1 0 10 20 13 33 13 25 0 -3 -5 0 -10 7 -10 7 -1 -5 -10
-26 -20 -47 -24 -60 -35 -27 -25 15 4 21 3 17 -3 -3 -5 -15 -12 -26 -15 -13
-3 -18 -1 -13 6 4 7 0 8 -11 4 -10 -4 -21 -7 -24 -7 -4 0 -1 -4 6 -9 10 -6 4
-13 -21 -25 -20 -9 -63 -32 -98 -51 -34 -20 -69 -33 -78 -30 -9 2 -23 0 -31
-6 -12 -8 -9 -9 10 -4 22 5 22 4 -5 -11 -16 -10 -46 -18 -65 -20 l-35 -2 48
25 c27 13 47 27 43 30 -3 3 -26 -6 -51 -20 -38 -22 -50 -24 -75 -16 -23 9 -35
7 -59 -7 -18 -11 -26 -21 -20 -25 6 -3 -51 -38 -127 -77 -77 -39 -131 -71
-122 -72 9 0 20 5 23 10 3 6 11 10 16 10 6 0 7 -5 3 -12 -5 -8 -2 -9 12 -4 10
5 27 11 37 13 9 3 17 9 17 14 0 12 -14 11 -27 -2 -6 -6 -17 -9 -23 -7 -6 2 5
11 25 21 20 10 34 13 30 7 -3 -5 1 -10 10 -10 9 0 14 4 10 9 -6 10 32 41 50
41 5 -1 -3 -8 -18 -16 -16 -9 -27 -18 -24 -21 3 -2 29 9 59 26 29 17 46 31 38
31 -8 1 -2 8 13 16 15 8 26 18 23 22 -2 4 6 7 17 8 12 0 31 4 42 8 16 7 17 6
5 -4 -12 -9 -10 -10 10 -5 l25 6 -25 -15 c-14 -9 -19 -15 -12 -16 7 0 24 7 38
16 13 9 27 14 30 11 3 -3 -12 -15 -35 -26 -46 -24 -55 -26 -45 -9 5 8 2 9 -10
5 -10 -4 -21 -7 -24 -8 -4 0 2 -5 13 -10 18 -8 18 -9 -4 -5 -23 5 -108 -30
-98 -40 3 -3 19 2 36 10 16 9 34 16 38 16 4 -1 -21 -16 -57 -35 -36 -19 -72
-32 -82 -29 -9 3 -20 -1 -24 -7 -5 -9 -2 -10 10 -6 11 4 15 3 11 -4 -4 -6 -14
-7 -24 -4 -16 7 -149 -53 -150 -68 -1 -4 8 -3 18 3 11 5 23 10 28 10 4 -1 -8
-9 -27 -20 -19 -11 -30 -19 -25 -20 10 0 175 80 185 90 3 3 25 14 50 25 25 10
59 28 75 40 17 12 41 26 55 30 14 4 52 22 85 40 91 50 199 105 208 105 4 0 25
11 46 24 58 37 272 146 287 146 7 0 14 3 16 8 2 4 16 14 32 22 16 8 30 23 32
33 3 19 -4 21 -26 7 -13 -9 -13 -10 0 -10 8 0 2 -9 -15 -20 -34 -22 -50 -26
-39 -8 5 8 2 9 -10 5 -10 -4 -21 -7 -24 -7 -4 0 -1 -4 6 -9 9 -5 -5 -17 -46
-39 -61 -32 -98 -44 -52 -16 25 15 25 15 1 8 -16 -4 -21 -3 -17 5 4 6 13 11
21 11 8 0 17 5 21 11 4 8 -1 9 -17 4 -31 -9 -23 -2 20 20 21 10 30 12 25 4 -5
-9 -2 -10 10 -6 10 4 21 7 24 7 4 0 1 4 -6 8 -9 6 -5 12 13 20 15 7 24 8 20 2
-8 -13 -2 -13 30 2 19 8 22 14 13 20 -9 6 -5 7 9 3 16 -4 22 -2 20 7 -2 7 -2
10 0 6 6 -11 23 -10 23 1 0 18 -28 19 -54 2z m-176 -155 c0 -2 -7 -7 -16 -10
-8 -3 -12 -2 -9 4 6 10 25 14 25 6z m-275 -76 c-3 -5 -11 -10 -16 -10 -6 0 -7
5 -4 10 3 6 11 10 16 10 6 0 7 -4 4 -10z m-205 -104 c0 -2 -7 -7 -16 -10 -8
-3 -12 -2 -9 4 6 10 25 14 25 6z m-100 -76 c-8 -5 -19 -10 -25 -10 -5 0 -3 5
5 10 8 5 20 10 25 10 6 0 3 -5 -5 -10z m-154 -125 c-27 -14 -52 -25 -55 -25
-13 1 75 50 89 50 8 0 -7 -11 -34 -25z"/>
<path d="M5560 2870 c-13 -8 -13 -10 2 -10 9 0 20 5 23 10 8 13 -5 13 -25 0z"/>
<path d="M5458 2832 c10 -3 8 -8 -5 -18 -27 -20 -2 -17 30 4 l27 19 -32 0
c-18 0 -27 -2 -20 -5z"/>
<path d="M4762 2683 c-28 -13 -31 -18 -18 -25 10 -6 23 -5 34 2 14 9 13 10 -8
5 -24 -6 -24 -5 3 10 15 9 27 18 27 20 0 7 -1 7 -38 -12z"/>
<path d="M5670 2644 c-58 -31 -163 -85 -235 -122 -71 -36 -132 -69 -135 -73
-3 -4 -12 -8 -20 -10 -27 -7 -550 -280 -556 -291 -4 -6 74 31 172 82 98 51
205 106 236 122 60 29 92 38 48 13 -38 -21 -15 -18 26 4 27 15 31 20 17 23
-15 3 -15 5 5 10 12 3 20 2 16 -3 -3 -5 -2 -9 3 -9 14 0 35 17 33 26 -1 5 4
10 12 12 9 2 8 0 -2 -7 -13 -9 -13 -11 2 -11 9 0 20 5 23 10 3 6 0 10 -7 10
-15 1 20 30 36 30 5 0 1 -7 -10 -15 -25 -19 -11 -19 26 0 31 16 42 32 15 21
-8 -3 -15 -3 -15 -1 0 9 202 106 208 101 3 -3 -1 -6 -8 -6 -7 0 -11 -2 -8 -5
3 -3 13 -2 22 1 13 5 14 9 5 14 -8 5 14 22 62 46 97 51 106 53 39 10 -30 -20
-60 -36 -67 -36 -6 0 -15 -5 -19 -12 -5 -8 -2 -9 9 -5 10 4 25 10 35 13 15 5
15 4 2 -6 -13 -10 -12 -11 3 -6 10 3 22 6 25 6 4 0 1 4 -6 8 -8 6 -1 14 24 25
19 10 33 13 29 7 -8 -13 1 -13 27 1 12 7 18 7 14 1 -3 -6 -1 -12 5 -14 6 -2
-6 -11 -26 -21 -20 -10 -34 -13 -30 -7 8 13 -5 13 -25 0 -11 -7 -11 -10 -2
-10 7 0 10 -4 7 -10 -9 -14 5 -12 35 5 14 8 32 14 40 14 8 1 -5 -9 -30 -21
-25 -11 -56 -20 -70 -20 -22 1 -23 0 -5 -7 17 -7 16 -9 -10 -15 -15 -4 -40
-16 -53 -27 -14 -10 -30 -19 -36 -19 -6 1 2 8 17 16 16 9 27 18 24 21 -3 2
-22 -5 -44 -16 -21 -11 -31 -20 -23 -21 10 0 8 -5 -7 -15 -12 -8 -30 -12 -40
-9 -13 4 -14 3 -5 -4 11 -7 11 -10 -3 -15 -10 -4 -14 -3 -9 4 4 8 -1 9 -17 4
-34 -10 -51 -29 -19 -21 14 4 1 -7 -29 -23 -30 -17 -56 -29 -59 -27 -2 3 9 11
25 20 15 8 21 15 13 16 -13 0 -13 1 0 11 12 8 11 9 -5 6 -11 -2 -19 -8 -18
-15 2 -6 -4 -9 -12 -6 -8 4 -12 11 -9 16 4 6 1 9 -6 6 -7 -2 -14 -12 -16 -22
-2 -13 2 -16 14 -12 13 5 12 2 -2 -9 -20 -15 -20 -15 0 -16 18 0 18 -1 -1 -9
-27 -12 -43 -12 -25 0 8 5 11 10 5 9 -17 0 -121 -58 -105 -58 8 -1 30 8 49 20
18 11 35 18 38 15 5 -5 -131 -76 -144 -76 -5 1 5 8 20 16 51 27 21 26 -33 -1
-29 -14 -50 -29 -47 -31 3 -3 16 0 29 6 22 11 22 11 -2 -9 -14 -11 -32 -21
-40 -21 -13 0 -13 1 0 10 13 8 13 10 1 10 -11 0 -10 4 5 16 17 14 17 15 1 10
-12 -4 -16 -2 -11 6 5 8 2 9 -9 5 -28 -11 -19 2 14 19 17 8 28 11 25 5 -10
-15 4 -13 34 5 23 14 23 14 3 9 -32 -9 -29 3 3 16 15 5 24 12 21 15 -3 3 -38
-11 -77 -32 -63 -33 -69 -39 -53 -48 33 -19 23 -58 -22 -83 -22 -12 -48 -20
-57 -17 -9 3 -31 -2 -48 -11 -31 -16 -42 -32 -14 -21 9 3 12 2 9 -5 -4 -5 -16
-7 -28 -4 -14 4 -17 3 -10 -2 9 -6 -1 -16 -32 -31 -47 -23 -72 -29 -45 -12 27
17 -4 10 -40 -10 -19 -11 -30 -19 -23 -20 7 0 10 -7 6 -15 -4 -11 9 -7 43 13
27 15 132 70 234 121 102 51 191 98 198 103 6 6 12 7 12 3 0 -5 8 -2 18 7 9 8
44 28 77 45 188 97 364 188 395 204 19 10 47 23 62 28 24 9 25 13 18 45 -5 24
-4 37 4 40 8 3 7 5 -1 5 -9 1 -10 8 -3 26 5 14 6 25 2 25 -4 0 -54 -26 -112
-56z m95 26 c-3 -5 -12 -10 -18 -10 -7 0 -6 4 3 10 19 12 23 12 15 0z m-5 -24
c0 -2 -7 -7 -16 -10 -8 -3 -12 -2 -9 4 6 10 25 14 25 6z m-820 -496 c-8 -5
-19 -10 -25 -10 -5 0 -3 5 5 10 8 5 20 10 25 10 6 0 3 -5 -5 -10z m-175 -90
c-3 -5 -14 -10 -23 -10 -15 0 -15 2 -2 10 20 13 33 13 25 0z"/>
<path d="M5110 2635 c-14 -8 -19 -14 -10 -14 8 0 24 6 34 14 25 19 9 19 -24 0z"/>
<path d="M5678 2599 c-6 -4 5 -6 25 -5 21 2 40 5 42 8 8 8 -53 5 -67 -3z"/>
<path d="M5020 2590 c-8 -5 -10 -10 -5 -10 6 0 17 5 25 10 8 5 11 10 5 10 -5
0 -17 -5 -25 -10z"/>
<path d="M5587 2554 c-15 -8 -32 -12 -37 -9 -5 3 -44 -12 -87 -34 -43 -22 -71
-40 -63 -41 8 0 -2 -11 -23 -24 l-37 -23 32 2 c18 1 47 8 63 15 17 7 41 13 55
14 14 1 25 7 25 14 0 7 20 24 44 37 47 27 55 30 47 16 -4 -5 3 -7 15 -4 14 4
17 8 9 13 -9 5 -6 10 9 15 11 3 25 4 31 0 6 -3 7 1 4 9 -7 18 -20 21 -29 6 -3
-5 -11 -10 -16 -10 -6 0 -7 5 -4 10 9 14 -5 12 -38 -6z m22 -8 c-15 -15 -201
-107 -206 -102 -3 3 5 10 18 15 21 9 22 10 4 10 -12 1 8 16 48 37 37 19 72 32
77 29 5 -3 18 -1 27 4 18 10 41 15 32 7z"/>
<path d="M5487 2503 c-27 -13 -47 -27 -44 -29 4 -5 61 22 92 43 31 21 4 14
-48 -14z"/>
<path d="M4882 2543 c-18 -8 -31 -18 -28 -20 2 -2 21 5 43 16 45 24 33 28 -15
4z"/>
<path d="M5755 2472 c-27 -15 -52 -28 -54 -29 -2 -2 -1 -6 2 -10 4 -4 13 -1
19 5 7 7 17 12 23 12 5 0 1 -7 -9 -15 -25 -19 -9 -19 24 0 22 13 23 14 5 15
l-20 1 20 9 c27 12 43 12 25 0 -13 -9 -13 -10 0 -10 8 -1 -5 -12 -30 -26 -48
-26 -46 -27 11 -5 31 12 36 18 36 47 0 19 -1 34 -1 34 -1 0 -23 -13 -51 -28z"/>
<path d="M4760 2455 c-14 -8 -20 -14 -15 -14 6 0 21 6 35 14 14 8 21 14 15 14
-5 0 -21 -6 -35 -14z"/>
<path d="M5649 2418 c-19 -12 -155 -83 -303 -159 -193 -98 -272 -143 -278
-159 -7 -19 -5 -21 15 -15 17 5 19 4 7 -4 -11 -8 -12 -11 -2 -11 7 0 10 -4 7
-10 -9 -14 6 -12 35 6 22 13 22 14 3 9 -16 -4 -21 -2 -19 12 2 9 9 19 17 21
11 3 11 1 -1 -8 -12 -10 -11 -11 8 -7 12 3 20 1 16 -4 -7 -11 7 -11 25 0 11 7
8 10 -10 16 -22 7 -22 8 -4 21 28 21 0 17 -45 -6 -22 -11 -40 -18 -40 -15 0 3
60 34 133 70 72 36 123 59 113 50 -14 -11 -16 -15 -5 -15 12 0 12 -2 -1 -10
-8 -5 -19 -10 -25 -10 -5 0 -3 5 5 10 8 5 11 10 5 9 -14 0 -103 -48 -90 -48 6
0 21 6 35 14 31 17 44 19 34 3 -4 -6 -3 -9 2 -6 5 3 30 15 57 27 49 22 63 37
25 26 -18 -5 -20 -4 -8 4 11 8 12 11 2 11 -7 0 -10 5 -7 10 3 6 11 10 16 10 6
0 7 -4 4 -10 -8 -13 5 -13 25 0 13 9 13 10 0 10 -8 0 17 18 55 40 39 21 75 39
80 39 6 0 -7 -9 -27 -20 -38 -19 -53 -37 -22 -25 8 3 12 2 9 -4 -8 -13 5 -13
25 0 13 9 13 10 0 10 -8 1 -2 8 13 16 15 8 25 19 22 23 -2 5 1 14 8 20 21 17
90 43 82 32 -3 -6 1 -11 9 -11 20 0 29 17 14 24 -7 3 -4 4 7 1 30 -7 48 8 26
22 -15 9 -25 7 -52 -9z"/>
<path d="M5765 2404 c-11 -8 -29 -13 -41 -10 -11 3 -30 -1 -42 -10 -12 -8 -31
-12 -44 -9 -14 3 -35 -2 -53 -15 -18 -12 -24 -20 -14 -20 8 0 24 7 35 15 10 8
23 15 28 15 6 0 1 -7 -10 -15 -25 -19 -11 -19 28 1 16 9 27 11 24 5 -11 -17 5
-12 74 24 36 19 58 34 50 34 -8 0 -24 -6 -35 -15z"/>
<path d="M5216 2363 c-40 -21 -64 -38 -57 -42 16 -10 -54 -42 -76 -35 -17 5
-17 5 -1 -6 14 -8 38 0 125 45 59 30 97 53 83 50 l-25 -6 25 15 c48 29 -5 14
-74 -21z m11 -19 c-27 -14 -51 -23 -54 -20 -5 5 75 44 92 45 6 0 -12 -11 -38
-25z"/>
<path d="M5745 2373 c-27 -14 -61 -28 -75 -29 -14 -2 -42 -5 -62 -8 -38 -4
-96 -36 -68 -36 8 -1 3 -8 -13 -16 -20 -11 -32 -12 -47 -4 -15 8 -27 7 -47 -4
-16 -9 -21 -16 -13 -16 10 0 6 -6 -10 -16 -17 -11 -19 -13 -5 -9 11 4 27 9 35
12 8 2 -18 -14 -58 -37 -41 -24 -86 -42 -100 -42 -15 0 -32 -5 -39 -10 -7 -5
-21 -7 -32 -3 -11 3 -23 0 -27 -6 -5 -9 -2 -10 10 -6 11 5 15 3 10 -5 -5 -8
-2 -9 9 -5 24 9 21 0 -4 -14 -15 -8 -19 -8 -15 0 4 6 3 11 -3 11 -18 0 -21
-18 -5 -24 10 -4 54 14 110 45 52 27 98 48 103 45 5 -3 20 -2 33 3 21 9 21 10
3 11 -12 0 9 16 53 40 78 43 106 52 57 20 -16 -11 -24 -20 -16 -20 11 0 9 -4
-5 -15 -22 -17 -12 -20 17 -5 10 6 19 7 19 2 0 -11 -76 -42 -93 -38 -7 1 -8 1
-4 -2 12 -6 -19 -24 -298 -167 -137 -70 -255 -132 -262 -137 -6 -5 -31 -11
-55 -13 -29 -3 -38 -1 -28 5 18 12 2 12 -25 0 l-20 -9 20 0 c17 -1 15 -4 -9
-16 -36 -19 -45 -19 -20 0 14 11 15 14 4 15 -13 0 -13 1 0 10 8 5 11 10 5 10
-5 0 -17 -5 -25 -10 -13 -9 -13 -10 0 -10 12 -1 12 -3 -3 -14 -32 -24 9 -28
55 -5 22 11 42 18 45 15 3 -2 -22 -19 -56 -36 -58 -29 -63 -30 -91 -15 -16 8
-36 15 -45 15 -10 0 -13 5 -9 12 4 6 3 8 -4 4 -6 -3 -13 -2 -17 3 -3 6 -32 -3
-66 -20 -34 -17 -58 -33 -55 -36 3 -3 17 2 31 11 14 9 25 14 25 11 0 -4 13 2
30 12 22 13 33 14 41 6 9 -9 7 -11 -8 -7 -12 3 -24 0 -29 -7 -5 -9 -2 -10 10
-6 10 4 15 3 11 -3 -8 -14 8 -13 22 1 6 6 17 9 23 7 6 -2 -5 -11 -25 -21 -20
-10 -34 -13 -30 -7 9 15 -1 12 -45 -10 -40 -21 -67 -27 -40 -10 8 5 11 10 5
10 -5 0 -17 -5 -25 -10 -11 -7 -11 -10 -2 -10 8 0 10 -5 6 -12 -5 -8 -2 -9 10
-5 11 5 15 3 10 -5 -5 -8 -2 -9 10 -5 10 4 21 7 24 7 4 0 1 4 -6 9 -11 7 -11
9 2 14 9 4 15 1 13 -5 -1 -7 7 -13 18 -15 14 -3 16 -1 7 5 -8 6 -2 13 24 25
19 10 33 13 29 7 -8 -13 5 -13 25 0 13 9 13 10 0 10 -13 0 -13 1 0 10 8 5 20
10 25 10 6 0 3 -5 -5 -10 -13 -9 -13 -10 0 -10 8 -1 -11 -14 -43 -31 -32 -16
-63 -29 -70 -28 -7 1 -19 1 -27 -1 -11 -1 -10 -4 5 -11 16 -8 14 -8 -10 -5
-16 3 -24 3 -17 0 13 -6 7 -24 -8 -24 -5 0 -7 9 -5 20 2 11 -1 20 -7 20 -6 0
-8 -11 -6 -25 3 -14 1 -25 -5 -25 -6 0 -8 -3 -5 -6 6 -6 95 37 328 158 80 41
253 130 385 198 132 67 247 128 255 135 8 6 36 19 63 29 33 12 47 23 47 36 0
12 12 23 35 31 22 8 31 17 26 22 -6 6 -20 1 -37 -12 -15 -11 -32 -21 -38 -21
-6 0 2 9 18 19 29 19 47 58 23 48 -7 -3 -21 -8 -32 -12 -20 -6 -20 -6 0 6 11
7 31 13 45 15 14 1 34 5 45 8 11 4 5 -1 -13 -11 l-33 -19 25 -12 c13 -6 26 -8
28 -4 2 4 34 23 72 42 42 21 70 42 72 53 3 22 -1 21 -61 -10z m15 -7 c0 -6
-87 -56 -97 -56 -4 0 15 14 42 30 53 31 55 32 55 26z m-282 -95 c11 -7 10 -9
-3 -14 -10 -4 -14 -3 -9 4 4 8 -1 9 -17 4 -19 -5 -21 -4 -9 4 18 13 21 13 38
2z m-208 -121 c-8 -5 -19 -10 -25 -10 -5 0 -3 5 5 10 8 5 20 10 25 10 6 0 3
-5 -5 -10z"/>
<path d="M4875 2208 c-118 -60 -182 -98 -142 -84 11 3 16 2 12 -4 -3 -6 -1
-10 5 -10 6 0 8 -4 5 -10 -3 -5 -11 -10 -16 -10 -6 0 -7 5 -4 10 3 6 2 10 -3
10 -5 0 -12 -9 -15 -20 -6 -24 -4 -24 34 -5 16 9 34 13 39 10 4 -3 20 0 35 7
26 12 26 12 5 20 -12 4 -30 3 -41 -2 -10 -6 -19 -8 -19 -6 0 3 17 15 38 26 28
16 31 20 12 16 -24 -5 -24 -4 -6 9 23 17 40 20 31 5 -8 -13 1 -13 26 0 10 6
19 8 19 6 0 -3 -17 -14 -37 -25 -21 -11 -32 -20 -25 -21 7 0 33 12 57 26 25
14 52 23 62 20 10 -3 36 5 58 19 22 13 33 25 25 25 -13 0 -13 1 0 10 11 7 11
10 2 10 -7 0 -11 4 -8 9 5 7 -16 22 -27 21 -1 0 -56 -28 -122 -62z m125 42
c-12 -8 -12 -10 5 -11 l20 0 -20 -8 c-17 -7 -17 -9 -3 -12 11 -3 6 -9 -20 -22
-29 -15 -33 -16 -23 -3 17 20 2 20 -23 1 -11 -8 -25 -15 -30 -15 -6 1 2 8 17
16 44 24 24 28 -22 5 -22 -12 -44 -21 -48 -21 -11 1 139 79 152 79 6 1 3 -4
-5 -9z m-210 -104 c0 -2 -7 -7 -16 -10 -8 -3 -12 -2 -9 4 6 10 25 14 25 6z"/>
<path d="M4962 2231 c-11 -6 -10 -10 4 -15 9 -3 19 -4 22 -1 3 3 -1 5 -9 5
-11 0 -11 2 1 10 8 5 11 10 5 10 -5 0 -16 -4 -23 -9z"/>
<path d="M5476 2233 c-25 -13 -27 -17 -13 -25 11 -6 23 -5 35 2 15 10 14 11
-6 7 -12 -3 -20 -1 -16 4 3 5 11 9 19 9 8 0 17 5 20 10 9 14 -5 12 -39 -7z"/>
<path d="M5244 2114 c-87 -46 -148 -72 -158 -68 -9 3 -14 10 -11 14 13 20 -31
17 -77 -6 -27 -14 -52 -23 -54 -21 -3 2 23 17 56 33 33 15 60 32 60 36 0 12 5
14 -139 -62 -73 -38 -136 -70 -140 -70 -4 0 -16 -9 -26 -20 -10 -11 -14 -20
-9 -20 5 0 2 -5 -6 -10 -11 -7 -11 -10 -2 -10 7 0 11 -4 8 -8 -8 -14 57 -10
79 4 16 12 17 14 3 14 -9 0 -20 -4 -23 -10 -3 -5 -11 -10 -18 -10 -6 0 -2 7 9
15 14 11 15 14 4 15 -13 0 -13 1 0 10 13 9 13 10 -1 10 -8 0 -20 -5 -27 -12
-6 -6 -14 -10 -16 -7 -3 3 36 27 87 53 50 27 85 41 78 32 -16 -19 -8 -21 21
-5 15 8 19 8 14 0 -9 -14 4 -14 24 -1 13 9 13 10 0 10 -12 1 -11 3 3 11 9 5
22 7 27 4 5 -3 19 -1 30 5 14 8 26 8 40 0 15 -8 27 -7 49 5 54 27 47 15 -8
-15 -61 -33 -74 -38 -45 -14 17 14 17 15 1 10 -11 -3 -16 -2 -12 4 8 13 -5 13
-25 0 -13 -9 -13 -10 0 -10 8 -1 -1 -9 -20 -20 -36 -20 -25 -28 13 -9 21 10
21 10 3 -5 -11 -9 -25 -16 -32 -16 -6 0 -22 -8 -35 -19 -13 -10 -35 -21 -49
-25 -19 -6 -21 -5 -10 3 13 10 13 11 0 11 -8 1 -2 8 13 16 45 24 24 28 -23 4
-23 -12 -39 -17 -35 -11 9 15 -5 13 -35 -5 -24 -14 -24 -15 -2 -11 12 3 20 1
16 -4 -7 -12 3 -11 26 1 13 7 18 6 16 -3 -3 -19 -16 -37 -29 -37 -6 0 -2 7 9
15 10 8 14 15 8 15 -5 0 -18 -6 -28 -13 -17 -13 -17 -14 -2 -20 15 -6 141 55
421 203 44 23 105 55 135 71 30 15 47 28 38 28 -9 1 -20 -3 -23 -9 -3 -5 -11
-10 -16 -10 -6 0 -7 5 -4 10 11 18 -9 10 -151 -66z m116 41 c0 -3 -40 -25 -90
-50 -49 -25 -90 -43 -90 -40 0 4 166 92 178 94 1 1 2 -1 2 -4z m-314 -100
c-11 -8 -25 -15 -30 -15 -6 0 -2 7 8 15 11 8 25 15 30 15 6 0 2 -7 -8 -15z"/>
<path d="M5510 2167 c12 -13 82 -57 90 -57 5 0 14 -8 19 -17 9 -16 10 -16 11
-2 0 11 -24 29 -62 49 -35 18 -61 30 -58 27z"/>
<path d="M5540 2080 c-8 -5 -33 -10 -55 -11 l-40 -1 33 -9 c17 -5 32 -11 32
-14 0 -2 -19 -15 -42 -29 -24 -14 -38 -26 -33 -26 6 0 35 16 65 36 30 20 46
33 35 30 -20 -6 -20 -6 -1 9 22 17 40 20 31 5 -8 -12 5 -13 23 -1 11 7 10 10
-3 15 -22 8 -27 8 -45 -4z"/>
<path d="M5600 2044 c-47 -25 -88 -50 -91 -55 -3 -6 -10 -9 -15 -8 -9 3 -86
-35 -273 -133 -53 -28 -175 -91 -271 -141 -96 -49 -208 -107 -248 -128 l-72
-38 -108 56 c-262 135 -378 196 -390 206 -7 5 -15 7 -19 3 -8 -8 -8 -9 62 -45
33 -17 50 -29 38 -26 -32 9 -29 -3 3 -16 15 -5 24 -12 21 -15 -3 -3 -20 2 -38
11 -20 11 -28 20 -20 24 7 5 -2 14 -24 24 -43 20 -60 22 -25 2 14 -7 25 -19
25 -27 0 -7 16 -21 35 -30 35 -18 28 -24 -25 -20 -16 2 -17 0 -5 -8 20 -13 4
-13 -22 1 -11 6 -22 8 -25 6 -5 -6 69 -47 84 -47 4 0 -2 7 -13 15 -24 18 -7
19 26 0 34 -19 40 -18 35 5 -2 11 2 20 8 20 7 0 6 4 -3 10 -13 8 -13 10 -1 10
11 0 9 4 -5 15 -27 20 -14 18 32 -5 36 -18 37 -20 9 -14 l-30 5 25 -15 c29
-18 44 -20 35 -6 -3 6 -2 10 4 10 16 0 22 -18 9 -24 -7 -3 -2 -3 12 0 15 3 33
-2 45 -11 20 -16 20 -16 -2 -6 -34 17 -52 12 -20 -5 15 -8 32 -12 37 -9 5 3
40 -10 77 -30 37 -20 57 -33 43 -29 -14 3 -29 10 -35 15 -5 5 -14 9 -20 9 -5
0 -2 -7 9 -15 16 -12 14 -13 -25 -10 l-44 4 35 -19 c19 -11 28 -19 19 -20 -8
0 -24 7 -35 15 -24 18 -40 19 -25 2 6 -8 8 -17 4 -20 -3 -4 21 -19 53 -34 32
-14 81 -39 107 -55 26 -15 55 -28 63 -28 9 0 84 35 167 79 84 43 213 110 287
148 249 130 337 173 348 173 6 0 12 3 14 8 2 4 60 36 131 71 l127 65 0 63 c0
35 -3 63 -7 62 -5 0 -46 -21 -93 -45z m90 5 c0 -6 -10 -8 -22 -4 -21 5 -21 5
2 -9 l25 -14 -27 1 c-14 1 -24 5 -21 10 6 10 -9 9 -26 -2 -20 -13 -24 -44 -5
-37 38 16 47 16 24 1 l-25 -16 30 6 c23 4 27 3 15 -5 -13 -10 -13 -11 0 -7 8
2 15 9 15 15 0 5 3 14 8 18 4 4 7 -2 7 -13 0 -15 -18 -29 -67 -54 -84 -42 -93
-45 -68 -25 11 8 17 16 12 16 -14 0 -169 -81 -164 -86 3 -3 32 9 66 25 34 17
61 29 61 26 0 -12 -120 -64 -135 -59 -14 6 -14 8 2 20 29 22 1 15 -47 -12 -25
-14 -34 -22 -20 -18 27 7 28 7 50 5 22 -2 -27 -32 -175 -107 -71 -37 -189 -97
-260 -135 -92 -48 -138 -67 -155 -64 -14 3 -19 3 -13 -1 10 -4 10 -8 0 -17
-15 -15 -70 -40 -63 -29 8 13 -11 35 -24 27 -9 -6 -9 -9 1 -16 11 -7 11 -9 -1
-9 -13 0 -13 -2 -1 -9 12 -7 6 -13 -22 -27 l-38 -18 -112 59 c-97 50 -118 66
-53 39 14 -5 17 -4 12 4 -11 18 2 15 41 -9 28 -18 38 -19 56 -10 19 10 20 11
2 7 -11 -3 -44 8 -74 23 -53 28 -54 28 -20 28 19 0 43 -7 54 -15 20 -15 18
-15 -32 5 -27 10 -12 -2 26 -22 18 -9 30 -12 27 -6 -10 15 4 13 34 -4 14 -8
34 -14 45 -14 18 0 18 1 2 7 -13 6 1 16 58 45 72 36 117 51 65 22 -14 -7 -25
-18 -25 -25 0 -6 -7 -15 -15 -20 -28 -18 4 -9 40 10 19 11 28 19 20 20 -12 0
-11 3 3 11 9 6 15 14 12 19 -3 5 0 12 6 16 8 4 9 3 5 -4 -9 -14 4 -15 24 -2
13 9 13 10 0 10 -13 0 -13 1 0 10 8 5 20 10 25 10 6 0 3 -5 -5 -10 -13 -9 -13
-10 0 -10 8 -1 2 -8 -13 -16 -45 -24 -24 -28 23 -4 23 12 39 17 35 11 -9 -16
8 -13 31 5 16 13 16 15 2 10 -33 -10 -19 5 19 20 28 12 33 18 22 25 -8 5 -21
9 -29 9 -12 0 -12 -2 -2 -9 11 -7 10 -9 -3 -14 -9 -4 -13 -3 -10 3 10 15 -9
12 -31 -6 -16 -13 -16 -15 -1 -10 22 7 22 -1 -1 -13 -14 -7 -18 -6 -19 7 -1
13 50 43 185 112 176 90 243 121 179 85 -34 -19 -29 -32 5 -15 22 11 22 10 4
-4 -15 -12 -16 -16 -5 -16 8 -1 2 -7 -13 -16 -25 -13 -30 -44 -8 -44 15 0 22
20 8 20 -7 1 3 9 22 20 19 10 45 16 56 14 12 -3 25 -1 28 4 9 14 -34 22 -58
11 -20 -10 -21 -10 -2 5 15 12 16 16 5 16 -8 1 21 19 65 41 43 22 76 43 73 45
-3 3 -14 1 -25 -5 -12 -6 -24 -11 -29 -11 -12 0 95 58 120 65 17 5 19 4 7 -4
-13 -9 -13 -11 2 -11 9 0 20 5 24 11 5 8 9 8 14 -1 4 -7 13 -9 20 -5 9 6 9 9
0 15 -9 5 -6 10 10 15 15 5 19 10 11 14 -7 5 10 20 46 39 55 29 73 32 73 11z
m-140 -53 c0 -2 -7 -7 -16 -10 -8 -3 -12 -2 -9 4 6 10 25 14 25 6z m-200 -101
c0 -2 -18 -14 -40 -25 -22 -11 -40 -18 -40 -15 0 2 17 13 38 24 42 23 42 23
42 16z m-1120 -215 c-12 -8 -12 -10 -1 -10 8 0 12 -3 8 -6 -3 -3 -16 -2 -29 2
-22 7 -22 7 -3 15 28 11 43 10 25 -1z m360 -130 c14 -11 21 -20 17 -20 -11 0
-67 29 -67 35 0 11 27 3 50 -15z"/>
<path d="M5570 1980 c-12 -8 -12 -10 5 -10 18 -1 17 -2 -5 -14 -13 -8 -43 -13
-66 -11 -22 1 -51 -3 -64 -10 -23 -13 -23 -13 -2 -19 12 -4 30 -2 41 3 11 6
23 11 28 10 8 0 -86 -49 -96 -49 -3 0 4 7 15 15 32 24 12 17 -66 -25 -82 -43
-90 -55 -9 -15 27 14 54 23 59 20 5 -3 41 10 80 30 39 20 75 33 80 30 5 -3 25
2 44 12 l36 17 -31 13 c-37 15 -31 15 -49 3z m34 -27 c-10 -7 -23 -13 -28 -13
-6 0 -3 5 7 11 9 6 15 14 12 20 -3 5 1 6 11 2 16 -6 15 -7 -2 -20z m-134 -23
c-8 -5 -19 -10 -25 -10 -5 0 -3 5 5 10 8 5 20 10 25 10 6 0 3 -5 -5 -10z"/>
<path d="M5350 1820 c-9 -6 -10 -10 -3 -10 6 0 15 5 18 10 8 12 4 12 -15 0z"/>
<path d="M5076 1748 c-91 -46 -115 -63 -103 -69 9 -5 25 -5 39 0 13 4 32 5 43
0 l20 -8 -20 -1 c-11 -2 -25 -2 -30 -1 -6 0 -29 -8 -50 -19 -27 -14 -33 -20
-20 -20 14 -1 9 -7 -18 -21 -21 -11 -42 -17 -47 -14 -5 3 -23 -1 -39 -10 -16
-8 -38 -12 -48 -9 -12 4 -14 3 -5 -3 9 -7 0 -16 -33 -32 -25 -12 -49 -20 -55
-16 -5 3 -24 -2 -41 -10 -17 -9 -40 -14 -51 -12 -11 3 -30 1 -43 -5 -17 -7
-30 -6 -55 7 -17 9 -33 15 -35 13 -2 -2 29 -21 69 -43 69 -37 76 -38 102 -26
17 8 24 16 16 18 -7 3 -19 0 -27 -7 -10 -9 -21 -8 -44 5 -33 17 -42 29 -14 18
12 -5 14 -3 8 7 -6 9 -4 11 5 5 7 -4 29 -9 49 -11 23 -2 30 0 18 4 -17 7 -16
9 7 20 27 12 60 6 50 -9 -7 -12 3 -11 27 2 11 5 17 14 14 19 -3 5 3 14 14 19
25 14 34 14 26 1 -9 -14 16 -2 228 105 97 50 172 92 167 93 -6 2 -8 8 -4 13 8
13 -1 11 -51 -12 -51 -24 -71 -45 -34 -34 18 5 21 4 9 -4 -8 -6 -24 -8 -35 -5
-17 4 -18 3 -5 -6 13 -10 12 -11 -3 -6 -10 3 -22 6 -25 6 -4 0 12 12 36 26 45
27 52 45 10 24 -22 -11 -22 -10 -4 4 11 9 27 14 37 11 9 -3 35 5 58 18 33 19
39 26 26 31 -9 3 -17 6 -18 5 -1 0 -56 -27 -121 -61z m104 32 c-19 -11 -39
-19 -45 -19 -5 0 6 8 25 19 19 11 40 19 45 19 6 0 -6 -8 -25 -19z m-14 -55
c-36 -19 -47 -19 -22 0 11 8 27 15 35 15 9 0 3 -7 -13 -15z m-96 0 c0 -7 -81
-47 -86 -43 -2 3 15 14 39 26 46 24 47 24 47 17z m-60 -80 c-14 -8 -29 -14
-35 -14 -5 0 1 6 15 14 14 8 30 14 35 14 6 0 -1 -6 -15 -14z m-150 -75 c-19
-11 -39 -19 -45 -19 -5 0 6 8 25 19 19 11 40 19 45 19 6 0 -6 -8 -25 -19z"/>
<path d="M5260 1775 c-14 -8 -20 -14 -15 -14 6 0 21 6 35 14 14 8 21 14 15 14
-5 0 -21 -6 -35 -14z"/>
<path d="M4677 1544 c-16 -9 -27 -18 -24 -21 6 -5 67 24 67 32 0 8 -14 5 -43
-11z"/>
<path d="M4614 1468 c10 -6 22 -6 26 -2 5 5 -3 10 -18 11 -22 1 -24 0 -8 -9z"/>
<path d="M5408 2041 c-15 -9 -30 -22 -33 -28 -6 -17 0 -16 17 0 7 7 29 17 48
23 28 8 31 11 15 15 -11 3 -32 -2 -47 -10z"/>
<path d="M4998 2022 c20 -13 -27 -30 -73 -26 -28 2 -50 -4 -80 -23 -22 -14
-31 -22 -20 -18 11 4 31 8 45 10 14 1 35 7 47 13 12 7 29 9 38 6 14 -6 12 -10
-12 -25 -15 -11 -22 -19 -15 -19 19 0 69 40 51 40 -8 1 1 9 20 19 27 15 30 19
16 24 -23 9 -33 8 -17 -1z m-98 -42 c-8 -5 -19 -10 -25 -10 -5 0 -3 5 5 10 8
5 20 10 25 10 6 0 3 -5 -5 -10z"/>
<path d="M5160 1981 c0 -6 4 -12 9 -15 12 -8 20 -55 10 -62 -4 -2 -5 -12 -2
-21 4 -10 2 -14 -4 -10 -6 4 -14 0 -17 -9 -8 -21 -7 -31 2 -19 4 6 28 20 55
33 26 13 47 25 47 27 0 6 -40 -8 -46 -16 -9 -15 -24 -10 -24 7 0 8 4 12 10 9
5 -3 7 0 5 7 -3 8 7 18 27 26 17 6 29 14 26 17 -3 3 -18 -1 -34 -9 -27 -15
-28 -14 -41 14 -12 29 -23 39 -23 21z"/>
<path d="M5286 1978 c-15 -8 -16 -12 -5 -19 12 -8 12 -11 -1 -19 -13 -9 -13
-10 0 -10 13 0 13 -1 0 -10 -24 -15 -4 -12 35 7 19 9 35 21 35 25 0 5 -10 2
-22 -6 -12 -9 -25 -16 -29 -16 -13 0 -4 35 10 41 8 3 10 8 5 11 -5 4 -18 2
-28 -4z"/>
<path d="M5380 1969 l-25 -20 33 16 c17 8 32 18 32 20 0 10 -16 4 -40 -16z"/>
<path d="M3922 1900 l-44 -50 114 0 113 1 -37 22 c-20 12 -51 30 -68 39 -17
10 -28 22 -25 28 17 28 -15 3 -53 -40z"/>
<path d="M5630 1842 c-19 -10 -116 -61 -215 -112 -99 -51 -220 -114 -270 -140
-137 -72 -444 -231 -495 -256 l-45 -22 0 -66 c-1 -36 2 -65 5 -63 3 1 23 11
45 22 22 11 42 23 43 28 2 4 8 7 13 7 21 0 130 58 120 64 -6 4 -21 0 -33 -8
-12 -9 -27 -16 -33 -16 -5 1 3 8 18 16 39 21 27 30 -13 9 -18 -9 -29 -12 -26
-6 9 14 -4 14 -24 1 -13 -8 -13 -10 -1 -10 11 0 9 -4 -5 -15 -23 -17 -12 -20
19 -4 12 6 18 7 12 2 -15 -16 -127 -74 -132 -70 -2 3 12 12 32 21 40 19 46 30
13 21 -18 -4 -17 -2 5 10 39 22 27 31 -13 10 -18 -9 -34 -14 -38 -11 -3 3 1 6
9 6 11 0 11 2 -1 10 -9 6 -11 10 -3 10 7 0 10 6 7 13 -3 8 21 25 63 45 38 18
59 26 49 17 -26 -20 1 -20 28 0 11 8 25 15 30 15 6 -1 -2 -8 -17 -16 -16 -9
-27 -18 -24 -21 3 -2 22 5 44 16 21 11 32 20 25 21 -7 0 -10 5 -7 10 3 6 -2
10 -12 10 -9 0 -1 8 21 19 21 11 45 17 53 14 10 -4 14 -2 10 4 -6 10 33 43 50
43 4 0 -5 -9 -22 -20 -38 -25 -16 -26 26 -1 21 13 26 21 17 25 -7 3 -4 4 7 1
11 -2 27 0 35 6 12 8 9 9 -10 4 -18 -4 -14 0 13 15 21 11 42 18 47 15 5 -3 22
1 37 10 26 15 18 15 -24 -2 -10 -3 -15 -3 -11 1 11 13 129 66 123 56 -10 -16
6 -11 65 20 63 33 51 41 -13 9 -23 -12 -37 -17 -32 -12 6 6 80 46 165 89 85
43 157 81 160 84 8 9 60 30 60 25 0 -2 -14 -12 -31 -20 -17 -9 -29 -19 -26
-21 3 -3 24 4 47 16 23 12 39 17 35 11 -8 -14 0 -14 28 0 21 10 21 10 3 -5
-14 -12 -16 -16 -5 -16 25 0 34 14 36 58 2 23 2 42 0 42 -1 0 -18 -8 -37 -18z
m17 -16 c-13 -10 -14 -15 -6 -18 9 -3 7 -7 -5 -11 -11 -4 -15 -3 -10 4 4 8 -1
9 -17 4 -21 -6 -20 -4 6 14 34 22 60 28 32 7z"/>
<path d="M5055 1826 c-38 -12 -39 -13 -12 -18 15 -3 27 -1 27 3 0 5 9 9 20 9
11 0 20 5 20 10 0 12 -3 12 -55 -4z"/>
<path d="M4898 1823 c7 -3 16 -2 19 1 4 3 -2 6 -13 5 -11 0 -14 -3 -6 -6z"/>
<path d="M4988 1813 c7 -3 16 -2 19 1 4 3 -2 6 -13 5 -11 0 -14 -3 -6 -6z"/>
<path d="M4538 1793 c-14 -17 0 -16 32 2 25 14 25 14 2 12 -13 -1 -28 -7 -34
-14z"/>
<path d="M4915 1786 c-11 -6 -23 -15 -26 -19 -3 -5 -10 -8 -15 -8 -19 2 -44
-11 -39 -20 4 -5 -3 -9 -14 -9 -26 0 -51 -10 -51 -21 0 -5 7 -9 16 -9 9 0 12
5 8 12 -5 7 -2 9 9 5 9 -3 27 3 40 14 14 10 32 19 40 19 9 0 17 5 19 11 2 6
12 7 28 1 23 -9 20 -12 -50 -48 -41 -21 -93 -46 -114 -56 -21 -10 -37 -21 -34
-24 7 -6 228 108 228 119 0 4 -10 12 -22 17 l-23 9 22 0 c12 1 24 5 27 9 7 12
-27 11 -49 -2z"/>
<path d="M5008 1783 c7 -3 16 -2 19 1 4 3 -2 6 -13 5 -11 0 -14 -3 -6 -6z"/>
<path d="M4610 1760 c-8 -5 -10 -10 -5 -10 6 0 17 5 25 10 8 5 11 10 5 10 -5
0 -17 -5 -25 -10z"/>
<path d="M5566 1758 c-11 -6 -34 -12 -51 -14 -32 -2 -230 -102 -221 -111 3 -3
25 6 50 21 24 14 48 26 53 26 4 -1 -5 -8 -20 -16 -39 -21 -27 -30 13 -9 18 9
29 12 26 6 -10 -15 4 -13 34 5 14 8 17 13 8 10 -10 -3 -25 -3 -33 0 -14 6 -13
8 2 20 10 7 23 13 28 14 6 0 3 -5 -5 -11 -12 -9 -11 -10 8 -6 14 3 20 1 15 -6
-4 -7 0 -8 11 -4 10 4 21 7 24 7 4 1 -4 7 -17 14 l-24 14 24 12 c22 12 23 12
10 -3 -18 -22 -9 -21 31 3 18 11 38 20 43 20 6 0 -7 -11 -29 -24 -31 -18 -35
-24 -21 -29 9 -4 28 0 43 8 16 8 21 15 12 15 -8 0 -2 8 14 16 22 13 26 18 15
25 -18 11 -20 11 -43 -3z"/>
<path d="M4114 1729 c-1 -16 1 -29 5 -30 3 -1 22 -2 40 -4 l35 -3 -38 23 c-21
13 -32 25 -25 27 10 3 9 6 -2 10 -10 4 -15 -2 -15 -23z m31 -19 c3 -6 -1 -7
-9 -4 -18 7 -21 14 -7 14 6 0 13 -4 16 -10z"/>
<path d="M5627 1736 c-27 -29 -84 -59 -97 -51 -5 3 -29 -4 -52 -16 -24 -12
-55 -24 -70 -26 -16 -1 -40 -5 -55 -6 -16 -2 -61 -20 -101 -41 -40 -20 -77
-34 -82 -31 -5 3 -22 -1 -37 -10 -16 -9 -19 -13 -8 -9 11 4 40 8 65 8 32 1 70
14 129 43 46 24 87 40 92 38 4 -3 31 6 60 20 29 14 54 23 56 21 2 -2 -27 -18
-64 -37 -86 -42 -92 -45 -68 -25 23 17 13 21 -15 6 -11 -6 -17 -16 -15 -23 3
-7 -14 -21 -42 -34 -63 -29 -68 -21 -6 11 65 34 46 33 -25 -1 -39 -19 -51 -28
-39 -31 14 -3 6 -11 -29 -28 -54 -27 -66 -30 -38 -9 10 8 15 15 10 15 -5 0 -3
7 4 15 15 18 7 19 -22 4 -15 -8 -17 -13 -8 -19 9 -6 6 -10 -10 -15 -16 -5 -19
-9 -10 -15 8 -5 4 -8 -13 -7 -14 1 -23 5 -20 10 9 14 -15 7 -72 -24 -31 -17
-59 -28 -62 -25 -3 3 7 10 22 16 15 6 25 13 22 16 -3 3 -36 -11 -73 -31 -38
-19 -74 -33 -82 -30 -7 3 -23 -2 -35 -10 -12 -8 -16 -15 -9 -15 7 0 10 -4 7
-10 -10 -17 8 -11 50 15 22 13 47 24 55 24 8 0 0 -6 -19 -15 -19 -8 -31 -17
-28 -20 3 -3 15 -1 26 6 12 6 26 8 31 5 5 -3 18 -1 27 5 15 9 14 10 -7 5 -24
-6 -24 -5 -6 9 22 18 40 21 31 6 -3 -5 0 -10 7 -10 7 -1 -6 -11 -30 -23 -24
-13 -40 -26 -36 -30 4 -3 48 16 98 43 150 80 373 195 508 262 90 45 128 68
128 81 0 24 -17 21 -43 -7z m-337 -141 c-36 -19 -69 -34 -75 -34 -5 0 19 15
55 34 36 19 70 34 75 34 6 0 -19 -15 -55 -34z m-184 -140 c-11 -8 -24 -15 -30
-15 -5 0 -1 7 10 15 10 8 24 14 29 14 6 0 1 -6 -9 -14z m-72 -17 c-5 -8 -2 -9
9 -5 10 3 17 3 17 -2 0 -5 -9 -11 -20 -14 -11 -3 -18 -1 -14 4 3 5 -1 9 -8 9
-9 0 -9 3 2 10 20 13 23 12 14 -2z m-54 -2 c0 -2 -7 -7 -16 -10 -8 -3 -12 -2
-9 4 6 10 25 14 25 6z m-115 -36 c-3 -5 -12 -10 -18 -10 -7 0 -6 4 3 10 19 12
23 12 15 0z"/>
<path d="M4719 1688 c0 -2 -2 -13 -3 -26 -2 -19 -1 -20 13 -8 9 7 23 16 31 20
8 3 2 4 -13 1 -19 -4 -26 -2 -22 5 3 5 4 10 1 10 -3 0 -6 -1 -7 -2z"/>
<path d="M4265 1670 c3 -5 0 -10 -7 -10 -11 0 -10 -2 0 -9 11 -7 11 -9 -2 -14
-9 -4 -24 -4 -33 0 -31 10 51 -44 103 -68 27 -13 52 -27 55 -32 4 -5 9 -5 13
1 4 6 -13 20 -40 31 -25 11 -43 25 -39 30 3 6 -7 17 -22 25 -15 8 -21 15 -13
16 13 0 13 1 0 10 -27 17 0 10 41 -11 23 -11 43 -18 46 -15 5 4 -89 56 -102
56 -4 0 -3 -4 0 -10z m19 -55 c11 -8 15 -15 10 -15 -6 0 -19 7 -30 15 -10 8
-14 14 -9 14 6 0 19 -6 29 -14z"/>
<path d="M4685 1648 c-6 -12 -21 -25 -35 -29 -22 -6 -22 -7 -4 -8 23 -1 58 32
52 49 -2 6 -8 0 -13 -12z"/>
<path d="M4510 1657 c0 -3 12 -12 26 -22 15 -9 23 -12 20 -6 -7 11 -46 35 -46
28z"/>
<path d="M4292 1635 c3 -3 22 -14 44 -25 36 -19 37 -20 9 -15 l-30 5 33 -15
c24 -11 38 -13 52 -5 10 5 26 7 36 3 12 -4 15 -3 10 5 -4 7 -1 12 6 13 7 0 0
7 -17 14 -37 16 -64 9 -38 -11 28 -21 7 -16 -47 11 -46 23 -70 32 -58 20z
m133 -33 c-3 -3 -11 0 -18 7 -9 10 -8 11 6 5 10 -3 15 -9 12 -12z"/>
<path d="M4600 1605 c14 -8 32 -14 40 -14 8 0 0 6 -19 14 -42 19 -54 19 -21 0z"/>
<path d="M5110 1525 c-25 -13 -52 -22 -60 -20 -8 3 -21 1 -29 -4 -11 -7 -9
-10 8 -16 14 -4 31 -1 47 10 13 8 30 15 37 14 24 -3 52 3 39 8 -10 4 -9 8 5
19 28 21 2 15 -47 -11z"/>
<path d="M5205 1530 c-3 -5 1 -10 9 -10 8 0 18 5 21 10 3 6 -1 10 -9 10 -8 0
-18 -4 -21 -10z"/>
<path d="M4917 1379 c-9 -5 -21 -7 -27 -4 -5 3 -33 -6 -62 -21 -52 -27 -124
-41 -112 -23 8 14 -3 11 -47 -12 -23 -11 -39 -23 -36 -25 3 -3 19 2 36 10 49
26 50 17 1 -10 -25 -14 -36 -22 -25 -18 11 4 31 7 44 7 14 -1 19 2 12 6 -8 5
-3 12 14 19 15 7 31 10 36 7 5 -3 18 -1 29 5 14 8 26 8 41 -1 27 -14 113 15
105 37 -3 7 3 18 12 23 9 6 13 10 7 10 -5 0 -18 -4 -28 -10z m-46 -23 c-16 -9
-20 -15 -11 -18 10 -3 9 -6 -4 -11 -11 -4 -15 -3 -10 4 4 8 -1 9 -17 5 -16 -5
-12 0 11 13 19 11 40 20 45 20 6 0 -1 -6 -14 -13z"/>
</g>
</svg>
